<svg xmlns="http://www.w3.org/2000/svg" xmlns:xlink="http://www.w3.org/1999/xlink" width="80" zoomAndPan="magnify" viewBox="50 50 80 55" height="80" preserveAspectRatio="xMidYMid meet" version="1.0">
  <defs><g/><clipPath id="01d140342b"><path d="M 50.742188 49.25 L 85.9375 49.25 L 85.9375 83.519531 L 50.742188 83.519531 Z M 50.742188 49.25 " clip-rule="nonzero"/></clipPath>
  <clipPath id="912bd7d94d"><path d="M 75.421875 69.734375 L 75.421875 60.703125 C 75.421875 58.777344 74.71875 57.132812 73.332031 55.773438 C 71.929688 54.402344 70.25 53.71875 68.277344 53.71875 C 66.304688 53.71875 64.625 54.398438 63.226562 55.773438 C 61.828125 57.136719 61.125 58.777344 61.125 60.703125 L 61.125 69.734375 C 63.339844 70.902344 65.714844 71.484375 68.277344 71.484375 C 70.839844 71.484375 73.214844 70.902344 75.421875 69.734375 M 79.980469 72.191406 L 79.980469 81.269531 C 79.980469 81.890625 79.753906 82.417969 79.308594 82.851562 C 78.863281 83.285156 78.335938 83.496094 77.707031 83.496094 C 77.078125 83.496094 76.53125 83.285156 76.085938 82.851562 C 75.644531 82.417969 75.417969 81.882812 75.417969 81.269531 L 75.417969 74.621094 C 73.15625 75.496094 70.777344 75.933594 68.269531 75.933594 C 65.765625 75.933594 63.375 75.496094 61.121094 74.621094 L 61.121094 81.269531 C 61.121094 81.890625 60.902344 82.417969 60.457031 82.851562 C 60.015625 83.285156 59.46875 83.496094 58.835938 83.496094 C 58.214844 83.496094 57.683594 83.285156 57.242188 82.851562 C 56.804688 82.417969 56.578125 81.882812 56.578125 81.269531 L 56.578125 72.15625 C 54.265625 70.511719 52.433594 68.441406 51.042969 65.941406 L 50.765625 64.894531 C 50.765625 64.683594 50.796875 64.457031 50.859375 64.246094 C 51.027344 63.660156 51.394531 63.214844 51.949219 62.917969 L 53.023438 62.632812 C 53.25 62.632812 53.464844 62.664062 53.6875 62.722656 C 54.285156 62.917969 54.742188 63.273438 55.042969 63.800781 L 56.566406 66.058594 L 56.566406 60.703125 C 56.566406 57.554688 57.707031 54.863281 60 52.621094 C 62.292969 50.386719 65.050781 49.273438 68.277344 49.273438 C 71.507812 49.273438 74.253906 50.386719 76.554688 52.621094 C 78.84375 54.863281 79.984375 57.554688 79.984375 60.703125 L 79.984375 66.058594 C 80.550781 65.355469 81.070312 64.601562 81.535156 63.800781 C 81.808594 63.273438 82.265625 62.917969 82.863281 62.722656 L 83.300781 62.632812 C 83.890625 62.632812 84.242188 62.722656 84.59375 62.917969 C 85.148438 63.214844 85.523438 63.652344 85.699219 64.246094 L 85.789062 64.683594 C 85.789062 65.25 85.699219 65.597656 85.496094 65.949219 C 84.109375 68.464844 82.265625 70.550781 79.980469 72.191406 " clip-rule="nonzero"/></clipPath><clipPath id="decfefbb88"><path d="M 0.742188 0.25 L 35.921875 0.25 L 35.921875 34.519531 L 0.742188 34.519531 Z M 0.742188 0.25 " clip-rule="nonzero"/></clipPath><clipPath id="b83ba014a0"><path d="M 25.421875 20.734375 L 25.421875 11.703125 C 25.421875 9.777344 24.71875 8.132812 23.332031 6.773438 C 21.929688 5.402344 20.25 4.71875 18.277344 4.71875 C 16.304688 4.71875 14.625 5.398438 13.226562 6.773438 C 11.828125 8.136719 11.125 9.777344 11.125 11.703125 L 11.125 20.734375 C 13.339844 21.902344 15.714844 22.484375 18.277344 22.484375 C 20.839844 22.484375 23.214844 21.902344 25.421875 20.734375 M 29.980469 23.191406 L 29.980469 32.269531 C 29.980469 32.890625 29.753906 33.417969 29.308594 33.851562 C 28.863281 34.285156 28.335938 34.496094 27.707031 34.496094 C 27.078125 34.496094 26.53125 34.285156 26.085938 33.851562 C 25.644531 33.417969 25.417969 32.882812 25.417969 32.269531 L 25.417969 25.621094 C 23.15625 26.496094 20.777344 26.933594 18.269531 26.933594 C 15.765625 26.933594 13.375 26.496094 11.121094 25.621094 L 11.121094 32.269531 C 11.121094 32.890625 10.902344 33.417969 10.457031 33.851562 C 10.015625 34.285156 9.46875 34.496094 8.835938 34.496094 C 8.214844 34.496094 7.683594 34.285156 7.242188 33.851562 C 6.804688 33.417969 6.578125 32.882812 6.578125 32.269531 L 6.578125 23.15625 C 4.265625 21.511719 2.433594 19.441406 1.042969 16.941406 L 0.765625 15.894531 C 0.765625 15.683594 0.796875 15.457031 0.859375 15.246094 C 1.027344 14.660156 1.394531 14.214844 1.949219 13.917969 L 3.023438 13.632812 C 3.25 13.632812 3.464844 13.664062 3.6875 13.722656 C 4.285156 13.917969 4.742188 14.273438 5.042969 14.800781 L 6.566406 17.058594 L 6.566406 11.703125 C 6.566406 8.554688 7.707031 5.863281 10 3.621094 C 12.292969 1.386719 15.050781 0.273438 18.277344 0.273438 C 21.507812 0.273438 24.253906 1.386719 26.554688 3.621094 C 28.84375 5.863281 29.984375 8.554688 29.984375 11.703125 L 29.984375 17.058594 C 30.550781 16.355469 31.070312 15.601562 31.535156 14.800781 C 31.808594 14.273438 32.265625 13.917969 32.863281 13.722656 L 33.300781 13.632812 C 33.890625 13.632812 34.242188 13.722656 34.59375 13.917969 C 35.148438 14.214844 35.523438 14.652344 35.699219 15.246094 L 35.789062 15.683594 C 35.789062 16.25 35.699219 16.597656 35.496094 16.949219 C 34.109375 19.464844 32.265625 21.550781 29.980469 23.191406 " clip-rule="nonzero"/></clipPath><clipPath id="7370a2ef06"><rect x="0" width="36" y="0" height="35"/></clipPath><clipPath id="52fc74ff08"><path d="M 90.261719 50.023438 L 113.570312 50.023438 L 113.570312 83.519531 L 90.261719 83.519531 Z M 90.261719 50.023438 " clip-rule="nonzero"/></clipPath><clipPath id="f74ce980a3"><path d="M 101.734375 66.96875 L 102.585938 66.96875 C 104.335938 66.96875 105.832031 66.359375 107.070312 65.15625 C 108.304688 63.9375 108.933594 62.484375 108.933594 60.769531 C 108.933594 59.066406 108.308594 57.609375 107.070312 56.402344 C 105.839844 55.191406 104.339844 54.582031 102.585938 54.582031 L 92.652344 54.582031 C 92.027344 54.582031 91.480469 54.371094 91.035156 53.933594 C 90.59375 53.503906 90.363281 52.96875 90.363281 52.351562 C 90.363281 51.730469 90.59375 51.203125 91.035156 50.769531 C 91.472656 50.335938 92.023438 50.117188 92.652344 50.117188 L 102.585938 50.117188 C 105.59375 50.117188 108.15625 51.160156 110.285156 53.261719 C 112.417969 55.34375 113.480469 57.847656 113.480469 60.777344 C 113.480469 63.722656 112.417969 66.21875 110.285156 68.300781 C 108.15625 70.386719 105.59375 71.429688 102.585938 71.429688 L 95.082031 71.429688 L 95.082031 81.269531 C 95.082031 81.890625 94.867188 82.417969 94.410156 82.851562 C 93.964844 83.285156 93.4375 83.496094 92.820312 83.496094 C 92.183594 83.496094 91.648438 83.285156 91.210938 82.851562 C 90.75 82.414062 90.539062 81.882812 90.539062 81.269531 L 90.539062 69.203125 C 90.539062 68.582031 90.75 68.054688 91.210938 67.621094 C 91.648438 67.179688 92.183594 66.96875 92.820312 66.96875 Z M 101.734375 66.96875 " clip-rule="nonzero"/></clipPath><clipPath id="eccdc71767"><path d="M 0.261719 0.0234375 L 23.519531 0.0234375 L 23.519531 33.519531 L 0.261719 33.519531 Z M 0.261719 0.0234375 " clip-rule="nonzero"/></clipPath><clipPath id="9919da0ef2"><path d="M 11.734375 16.96875 L 12.585938 16.96875 C 14.335938 16.96875 15.832031 16.359375 17.070312 15.15625 C 18.304688 13.9375 18.933594 12.484375 18.933594 10.769531 C 18.933594 9.066406 18.308594 7.609375 17.070312 6.402344 C 15.839844 5.191406 14.339844 4.582031 12.585938 4.582031 L 2.652344 4.582031 C 2.027344 4.582031 1.480469 4.371094 1.035156 3.933594 C 0.59375 3.503906 0.363281 2.96875 0.363281 2.351562 C 0.363281 1.730469 0.59375 1.203125 1.035156 0.769531 C 1.472656 0.335938 2.023438 0.117188 2.652344 0.117188 L 12.585938 0.117188 C 15.59375 0.117188 18.15625 1.160156 20.285156 3.261719 C 22.417969 5.34375 23.480469 7.847656 23.480469 10.777344 C 23.480469 13.722656 22.417969 16.21875 20.285156 18.300781 C 18.15625 20.386719 15.59375 21.429688 12.585938 21.429688 L 5.082031 21.429688 L 5.082031 31.269531 C 5.082031 31.890625 4.867188 32.417969 4.410156 32.851562 C 3.964844 33.285156 3.4375 33.496094 2.820312 33.496094 C 2.183594 33.496094 1.648438 33.285156 1.210938 32.851562 C 0.75 32.414062 0.539062 31.882812 0.539062 31.269531 L 0.539062 19.203125 C 0.539062 18.582031 0.75 18.054688 1.210938 17.621094 C 1.648438 17.179688 2.183594 16.96875 2.820312 16.96875 Z M 11.734375 16.96875 " clip-rule="nonzero"/></clipPath><clipPath id="0f7a521094"><rect x="0" width="24" y="0" height="34"/></clipPath><clipPath id="05540e91b0"><path d="M 118.199219 50.023438 L 122.828125 50.023438 L 122.828125 83.519531 L 118.199219 83.519531 Z M 118.199219 50.023438 " clip-rule="nonzero"/></clipPath><clipPath id="ae5d129545"><path d="M 118.914062 82.851562 C 118.46875 82.414062 118.25 81.882812 118.25 81.269531 L 118.25 52.34375 C 118.25 51.726562 118.46875 51.199219 118.914062 50.765625 C 119.367188 50.328125 119.902344 50.113281 120.535156 50.113281 C 121.15625 50.113281 121.683594 50.328125 122.132812 50.765625 C 122.574219 51.203125 122.800781 51.726562 122.800781 52.34375 L 122.800781 81.269531 C 122.800781 81.890625 122.578125 82.417969 122.132812 82.851562 C 121.683594 83.292969 121.15625 83.496094 120.535156 83.496094 C 119.898438 83.496094 119.363281 83.285156 118.914062 82.851562 " clip-rule="nonzero"/></clipPath><clipPath id="811597a9ce"><path d="M 0.199219 0.0234375 L 4.828125 0.0234375 L 4.828125 33.519531 L 0.199219 33.519531 Z M 0.199219 0.0234375 " clip-rule="nonzero"/></clipPath><clipPath id="74e73c1edc"><path d="M 0.914062 32.851562 C 0.46875 32.414062 0.25 31.882812 0.25 31.269531 L 0.25 2.34375 C 0.25 1.726562 0.46875 1.199219 0.914062 0.765625 C 1.367188 0.328125 1.902344 0.113281 2.535156 0.113281 C 3.15625 0.113281 3.683594 0.328125 4.132812 0.765625 C 4.574219 1.203125 4.800781 1.726562 4.800781 2.34375 L 4.800781 31.269531 C 4.800781 31.890625 4.578125 32.417969 4.132812 32.851562 C 3.683594 33.292969 3.15625 33.496094 2.535156 33.496094 C 1.898438 33.496094 1.363281 33.285156 0.914062 32.851562 " clip-rule="nonzero"/></clipPath><clipPath id="880c9d9381"><rect x="0" width="5" y="0" height="34"/></clipPath><clipPath id="634b5b8677"><rect x="0" width="73" y="0" height="12"/></clipPath></defs><rect x="-18" width="216" fill="#ffffff" y="-18" height="215.999996" fill-opacity="1"/><rect x="-18" width="216" fill="#ffffff" y="-18" height="215.999996" fill-opacity="1"/><g clip-path="url(#01d140342b)"><g clip-path="url(#912bd7d94d)"><g transform="matrix(1, 0, 0, 1, 50, 49)"><g clip-path="url(#7370a2ef06)"><g clip-path="url(#decfefbb88)"><g clip-path="url(#b83ba014a0)"><rect x="-89.6" width="259.2" fill="#2f409a" height="259.199995" y="-88.599999" fill-opacity="1"/></g></g></g></g></g></g><g clip-path="url(#52fc74ff08)"><g clip-path="url(#f74ce980a3)"><g transform="matrix(1, 0, 0, 1, 90, 50)"><g clip-path="url(#0f7a521094)"><g clip-path="url(#eccdc71767)"><g clip-path="url(#9919da0ef2)"><rect x="-129.6" width="259.2" fill="#2f409a" height="259.199995" y="-89.599999" fill-opacity="1"/></g></g></g></g></g></g><g clip-path="url(#05540e91b0)"><g clip-path="url(#ae5d129545)"><g transform="matrix(1, 0, 0, 1, 118, 50)"><g clip-path="url(#880c9d9381)"><g clip-path="url(#811597a9ce)"><g clip-path="url(#74e73c1edc)"><rect x="-157.6" width="259.2" fill="#2f409a" height="259.199995" y="-89.599999" fill-opacity="1"/></g></g></g></g></g></g><g transform="matrix(1, 0, 0, 1, 55, 91)"><g clip-path="url(#634b5b8677)"><g fill="#2f409a" fill-opacity="1"><g transform="translate(1.067464, 8.973645)"><g><path d="M 4.046875 -1.5625 C 4.046875 -1.050781 3.859375 -0.648438 3.484375 -0.359375 C 3.117188 -0.0664062 2.613281 0.078125 1.96875 0.078125 C 1.363281 0.078125 0.828125 -0.0351562 0.359375 -0.265625 L 0.359375 -1.375 C 0.742188 -1.207031 1.066406 -1.085938 1.328125 -1.015625 C 1.585938 -0.941406 1.828125 -0.90625 2.046875 -0.90625 C 2.316406 -0.90625 2.519531 -0.957031 2.65625 -1.0625 C 2.800781 -1.164062 2.875 -1.316406 2.875 -1.515625 C 2.875 -1.617188 2.84375 -1.710938 2.78125 -1.796875 C 2.71875 -1.890625 2.625 -1.972656 2.5 -2.046875 C 2.382812 -2.128906 2.140625 -2.257812 1.765625 -2.4375 C 1.421875 -2.59375 1.160156 -2.742188 0.984375 -2.890625 C 0.816406 -3.046875 0.679688 -3.222656 0.578125 -3.421875 C 0.472656 -3.617188 0.421875 -3.851562 0.421875 -4.125 C 0.421875 -4.625 0.585938 -5.015625 0.921875 -5.296875 C 1.265625 -5.578125 1.738281 -5.71875 2.34375 -5.71875 C 2.632812 -5.71875 2.910156 -5.679688 3.171875 -5.609375 C 3.441406 -5.546875 3.722656 -5.453125 4.015625 -5.328125 L 3.625 -4.390625 C 3.320312 -4.515625 3.070312 -4.601562 2.875 -4.65625 C 2.6875 -4.707031 2.492188 -4.734375 2.296875 -4.734375 C 2.078125 -4.734375 1.90625 -4.675781 1.78125 -4.5625 C 1.65625 -4.457031 1.59375 -4.320312 1.59375 -4.15625 C 1.59375 -4.050781 1.617188 -3.957031 1.671875 -3.875 C 1.722656 -3.800781 1.800781 -3.726562 1.90625 -3.65625 C 2.007812 -3.582031 2.257812 -3.453125 2.65625 -3.265625 C 3.1875 -3.003906 3.550781 -2.75 3.75 -2.5 C 3.945312 -2.25 4.046875 -1.9375 4.046875 -1.5625 Z M 4.046875 -1.5625 "/></g></g></g><g fill="#2f409a" fill-opacity="1"><g transform="translate(11.02842, 8.973645)"><g><path d="M 5.828125 -2.828125 C 5.828125 -1.890625 5.59375 -1.171875 5.125 -0.671875 C 4.664062 -0.171875 4.003906 0.078125 3.140625 0.078125 C 2.273438 0.078125 1.609375 -0.171875 1.140625 -0.671875 C 0.679688 -1.171875 0.453125 -1.894531 0.453125 -2.84375 C 0.453125 -3.78125 0.6875 -4.492188 1.15625 -4.984375 C 1.625 -5.484375 2.289062 -5.734375 3.15625 -5.734375 C 4.019531 -5.734375 4.679688 -5.484375 5.140625 -4.984375 C 5.597656 -4.484375 5.828125 -3.765625 5.828125 -2.828125 Z M 1.71875 -2.828125 C 1.71875 -2.203125 1.835938 -1.726562 2.078125 -1.40625 C 2.316406 -1.082031 2.671875 -0.921875 3.140625 -0.921875 C 4.097656 -0.921875 4.578125 -1.554688 4.578125 -2.828125 C 4.578125 -4.097656 4.101562 -4.734375 3.15625 -4.734375 C 2.675781 -4.734375 2.316406 -4.570312 2.078125 -4.25 C 1.835938 -3.9375 1.71875 -3.460938 1.71875 -2.828125 Z M 1.71875 -2.828125 "/></g></g></g><g fill="#2f409a" fill-opacity="1"><g transform="translate(22.927492, 8.973645)"><g><path d="M 3.109375 -4.734375 C 2.660156 -4.734375 2.3125 -4.5625 2.0625 -4.21875 C 1.8125 -3.882812 1.6875 -3.414062 1.6875 -2.8125 C 1.6875 -1.550781 2.160156 -0.921875 3.109375 -0.921875 C 3.503906 -0.921875 3.984375 -1.019531 4.546875 -1.21875 L 4.546875 -0.21875 C 4.085938 -0.0195312 3.570312 0.078125 3 0.078125 C 2.175781 0.078125 1.546875 -0.171875 1.109375 -0.671875 C 0.671875 -1.171875 0.453125 -1.882812 0.453125 -2.8125 C 0.453125 -3.394531 0.554688 -3.90625 0.765625 -4.34375 C 0.984375 -4.789062 1.289062 -5.128906 1.6875 -5.359375 C 2.09375 -5.597656 2.566406 -5.71875 3.109375 -5.71875 C 3.660156 -5.71875 4.210938 -5.585938 4.765625 -5.328125 L 4.375 -4.359375 C 4.164062 -4.453125 3.953125 -4.535156 3.734375 -4.609375 C 3.523438 -4.691406 3.316406 -4.734375 3.109375 -4.734375 Z M 3.109375 -4.734375 "/></g></g></g><g fill="#2f409a" fill-opacity="1"><g transform="translate(33.571807, 8.973645)"><g><path d="M 0.703125 0 L 0.703125 -5.640625 L 1.90625 -5.640625 L 1.90625 0 Z M 0.703125 0 "/></g></g></g><g fill="#2f409a" fill-opacity="1"><g transform="translate(41.795408, 8.973645)"><g><path d="M 3.953125 0 L 0.703125 0 L 0.703125 -5.640625 L 3.953125 -5.640625 L 3.953125 -4.65625 L 1.90625 -4.65625 L 1.90625 -3.421875 L 3.8125 -3.421875 L 3.8125 -2.4375 L 1.90625 -2.4375 L 1.90625 -0.984375 L 3.953125 -0.984375 Z M 3.953125 0 "/></g></g></g><g fill="#2f409a" fill-opacity="1"><g transform="translate(51.829719, 8.973645)"><g><path d="M 2.890625 0 L 1.6875 0 L 1.6875 -4.640625 L 0.15625 -4.640625 L 0.15625 -5.640625 L 4.421875 -5.640625 L 4.421875 -4.640625 L 2.890625 -4.640625 Z M 2.890625 0 "/></g></g></g><g fill="#2f409a" fill-opacity="1"><g transform="translate(62.014601, 8.973645)"><g><path d="M 2.46875 -3.3125 L 3.640625 -5.640625 L 4.9375 -5.640625 L 3.0625 -2.203125 L 3.0625 0 L 1.875 0 L 1.875 -2.15625 L 0 -5.640625 L 1.296875 -5.640625 Z M 2.46875 -3.3125 "/></g></g></g></g></g></svg>
