<?xml version="1.0" encoding="utf-8"?>
<!-- Generator: Adobe Illustrator 28.2.0, SVG Export Plug-In . SVG Version: 6.00 Build 0)  -->
<svg version="1.1" id="Layer_1" xmlns="http://www.w3.org/2000/svg" xmlns:xlink="http://www.w3.org/1999/xlink" x="0px" y="0px"
	 viewBox="0 0 1000 371.7" style="enable-background:new 0 0 1000 371.7;" xml:space="preserve">
<style type="text/css">
	.st0{fill:#A973FF;}
</style>
<g>
	<rect x="599.9" y="96.7" class="st0" width="56.9" height="197.4"/>
	<path class="st0" d="M628.5,71.3c18.8,0,33.7-14,33.7-33.5c0-19.1-14.9-33.4-33.7-33.4c-19.2,0-34.1,14.4-34.1,33.4
		C594.5,57.2,609.3,71.3,628.5,71.3"/>
	<path class="st0" d="M329.8,245.7c-27.8,0-50.3-22.5-50.3-50.3c0-27.8,22.5-50.3,50.3-50.3c27.8,0,50.3,22.5,50.3,50.3
		C380.1,223.2,357.6,245.7,329.8,245.7 M329.8,91.1c-57.6,0-104.3,46.7-104.3,104.3c0,57.6,46.7,104.3,104.3,104.3
		c57.6,0,104.3-46.7,104.3-104.3C434.2,137.8,387.4,91.1,329.8,91.1"/>
	<path class="st0" d="M129.1,239.2c-7.3,4.1-15.7,6.5-24.7,6.5c-27.8,0-50.3-22.5-50.3-50.3c0-27.8,22.5-50.3,50.3-50.3
		c27.8,0,50.3,22.5,50.3,50.3c0,9-2.4,17.4-6.5,24.7l38.9,38.9c13.6-17.6,21.7-39.7,21.7-63.7c0-57.6-46.7-103.6-104.3-103.6
		c-17.1,0-33.2,4.9-47.5,12.2V8.4H0v187.1c0,63.9,46.7,104.3,104.3,104.3c24,0,46-8.1,63.7-21.7L129.1,239.2z"/>
	<path class="st0" d="M764.8,81.6c0-20.9,12.7-32,34.8-32c2.3,0,4.6,0.2,6.9,0.5V1c-5-0.6-10.1-1-15.6-1
		c-46.4,0-82.8,25.9-82.8,80.2v16.5h-29.7v46.6h29.7l0.2,150.8h56.5V143.2h41.6V96.7h-41.6V81.6z"/>
	<path class="st0" d="M576.2,240.7c-7.7,3.6-17.9,6.9-29,6.9c-20.3,0-26.4-10.8-26.4-33.5v-70.9h55.4V96.7h-55.4V37.8H464v58.9
		h-30.5v46.6H464v76.3c0,52.9,24.6,79.5,71,79.5c14.6,0,28.7-2.2,41.3-6.8V240.7z"/>
	<path class="st0" d="M881.3,203.7v-107h-55.1v107c0,51.7,29.6,95.9,86.9,95.9c11.7,0,22.1-2.8,31.7-7.5c0,7.1,1.8,28.2-20.3,28.2
		h-98.3v51.4h104.5c46.4,0,69.3-25.2,69.3-82.8V96.7h-55.1v107c0,10.7-0.2,40.9-31.8,40.9S881.3,214.4,881.3,203.7"/>
</g>
</svg>
