<?xml version="1.0" encoding="UTF-8" standalone="no"?>
<!-- Created with Inkscape (http://www.inkscape.org/) -->

<svg
   width="500"
   height="300"
   viewBox="0 0 132.29166 79.375002"
   version="1.1"
   id="svg8"
   sodipodi:docname="Gentils nuages.svg"
   inkscape:version="1.4.2 (ebf0e940d0, 2025-05-08)"
   xmlns:inkscape="http://www.inkscape.org/namespaces/inkscape"
   xmlns:sodipodi="http://sodipodi.sourceforge.net/DTD/sodipodi-0.dtd"
   xmlns="http://www.w3.org/2000/svg"
   xmlns:svg="http://www.w3.org/2000/svg"
   xmlns:rdf="http://www.w3.org/1999/02/22-rdf-syntax-ns#"
   xmlns:cc="http://creativecommons.org/ns#"
   xmlns:dc="http://purl.org/dc/elements/1.1/">
  <sodipodi:namedview
     id="namedview1"
     pagecolor="#ffffff"
     bordercolor="#000000"
     borderopacity="0.25"
     inkscape:showpageshadow="2"
     inkscape:pageopacity="0.0"
     inkscape:pagecheckerboard="0"
     inkscape:deskcolor="#d1d1d1"
     inkscape:zoom="2.046"
     inkscape:cx="250"
     inkscape:cy="150.04888"
     inkscape:window-width="1920"
     inkscape:window-height="1011"
     inkscape:window-x="0"
     inkscape:window-y="0"
     inkscape:window-maximized="1"
     inkscape:current-layer="svg8" />
  <defs
     id="defs2" />
  <metadata
     id="metadata5">
    <rdf:RDF>
      <cc:Work
         rdf:about="">
        <dc:format>image/svg+xml</dc:format>
        <dc:type
           rdf:resource="http://purl.org/dc/dcmitype/StillImage" />
      </cc:Work>
    </rdf:RDF>
  </metadata>
  <text
     id="text841"
     y="89.846062"
     x="71.628227"
     style="font-style:normal;font-weight:normal;font-size:10.5833px;line-height:1.25;font-family:sans-serif;letter-spacing:0px;word-spacing:0px;fill:#000000;fill-opacity:1;stroke:none;stroke-width:0.264583;stroke-opacity:1"
     xml:space="preserve" />
  <g
     id="g1767"
     transform="matrix(1.8494732,0,0,1.8494732,-56.246272,-357.7051)">
    <g
       style="fill:none;fill-opacity:1;stroke:#680084;stroke-opacity:1"
       transform="matrix(0.90458531,0,0,0.90458531,-138.60275,55.156579)"
       id="g851">
      <g
         id="g986"
         style="stroke:#15aed6;stroke-width:4.51448;stroke-miterlimit:4;stroke-dasharray:none;stroke-opacity:1"
         transform="matrix(0.62672213,0,0,0.62672213,195.7064,7.7937008)">
        <path
           style="opacity:1;fill:none;fill-opacity:1;stroke:#15aed6;stroke-width:4.51448;stroke-linecap:round;stroke-linejoin:round;stroke-miterlimit:4;stroke-dasharray:none;stroke-dashoffset:0;stroke-opacity:1"
           id="path815"
           d="m 89.998317,248.76674 a 13.898015,13.898015 0 0 1 14.295403,7.30426 13.898015,13.898015 0 0 1 -2.12885,15.91158" />
        <path
           style="opacity:1;fill:none;fill-opacity:1;stroke:#15aed6;stroke-width:4.51448;stroke-linecap:round;stroke-linejoin:round;stroke-miterlimit:4;stroke-dasharray:none;stroke-dashoffset:0;stroke-opacity:1"
           id="path817"
           d="m 260.68726,-114.30034 a 13.294951,13.294951 0 0 1 13.67509,6.98731 13.294951,13.294951 0 0 1 -2.03647,15.221153"
           transform="rotate(94.136545)" />
        <path
           d="m -54.285942,242.17643 a 12.610526,12.610526 0 0 1 12.971096,6.6276 12.610526,12.610526 0 0 1 -1.931633,14.43757"
           id="path819"
           style="opacity:1;fill:none;fill-opacity:1;stroke:#15aed6;stroke-width:4.51448;stroke-linecap:round;stroke-linejoin:round;stroke-miterlimit:4;stroke-dasharray:none;stroke-dashoffset:0;stroke-opacity:1"
           transform="rotate(-27.71485)" />
        <path
           transform="rotate(-81.236192)"
           style="opacity:1;fill:none;fill-opacity:1;stroke:#15aed6;stroke-width:4.51448;stroke-linecap:round;stroke-linejoin:round;stroke-miterlimit:4;stroke-dasharray:none;stroke-dashoffset:0;stroke-opacity:1"
           id="path823"
           d="m -241.37583,83.525678 a 9.435813,9.435813 0 0 1 9.70561,4.959095 9.435813,9.435813 0 0 1 -1.44534,10.802892" />
        <path
           style="fill:none;fill-opacity:1;stroke:#15aed6;stroke-width:4.51448;stroke-linecap:round;stroke-linejoin:round;stroke-miterlimit:4;stroke-dasharray:none;stroke-opacity:1"
           d="m 66.593088,275.88569 c 0,0 -11.759859,5.87993 -23.786989,-4.54358"
           id="path825" />
      </g>
      <path
         id="path827"
         d="m 190.64762,173.82971 h 41.70843"
         style="fill:none;fill-opacity:1;stroke:#55cd72;stroke-width:2.82933;stroke-linecap:round;stroke-linejoin:miter;stroke-miterlimit:4;stroke-dasharray:none;stroke-opacity:1" />
      <path
         style="fill:none;fill-opacity:1;stroke:#55cd72;stroke-width:2.82933;stroke-linecap:round;stroke-linejoin:miter;stroke-miterlimit:4;stroke-dasharray:none;stroke-opacity:1"
         d="m 208.45091,169.47461 h 16.65458"
         id="path829" />
    </g>
    <path
       style="opacity:1;fill:#15aed6;fill-opacity:1;stroke:none;stroke-width:2.91042;stroke-linecap:round;stroke-linejoin:round;stroke-miterlimit:4;stroke-dasharray:none;stroke-dashoffset:0;stroke-opacity:1"
       id="path4579"
       d="m 82.166297,209.2177 a 1.5367998,1.5367998 0 0 1 1.739638,1.29511 1.5367998,1.5367998 0 0 1 -1.287776,1.74507 1.5367998,1.5367998 0 0 1 -1.750472,-1.28043 1.5367998,1.5367998 0 0 1 1.27305,-1.75584" />
    <path
       d="m 87.244422,209.2177 a 1.5367998,1.5367998 0 0 1 1.739638,1.29511 1.5367998,1.5367998 0 0 1 -1.287776,1.74507 1.5367998,1.5367998 0 0 1 -1.750472,-1.28043 1.5367998,1.5367998 0 0 1 1.27305,-1.75584"
       id="path4581"
       style="opacity:1;fill:#15aed6;fill-opacity:1;stroke:none;stroke-width:2.91042;stroke-linecap:round;stroke-linejoin:round;stroke-miterlimit:4;stroke-dasharray:none;stroke-dashoffset:0;stroke-opacity:1" />
  </g>
  <path
     style="font-weight:bold;font-size:19.8739px;line-height:1.25;font-family:Itim;-inkscape-font-specification:'Itim Bold';letter-spacing:0px;word-spacing:0px;fill:#15aed6;stroke-width:0.496849"
     d="m 12.380672,62.143222 q -0.854578,-0.61609 -1.470668,-0.89432 -0.616091,-0.29811 -1.4309212,-0.29811 -1.6296598,0 -2.8022199,0.8347 -0.8943254,0.65584 -1.3315512,1.70916 -0.4372258,1.05331 -0.4372258,2.36499 0,1.25206 0.5763431,2.206 0.5763431,0.93408 1.4905424,1.43092 0.9141994,0.49685 1.9078944,0.49685 0.993695,0 1.7091552,-0.29811 0.735334,-0.31798 1.17256,-0.81483 0.675713,-0.85457 0.675713,-2.26562 0,-0.19874 -0.317983,-0.27824 -0.317982,-0.0795 -0.914199,-0.0795 l -1.4309207,0.0199 q -0.5763431,0 -0.9141994,-0.21861 -0.3378563,-0.21861 -0.3378563,-0.55647 0,-0.47697 0.3179824,-0.69559 0.3179824,-0.23848 0.8545777,-0.23848 0.6359643,0 1.7091553,0.0795 1.073191,0.0795 1.550164,0.0795 0.695587,0 1.112939,0.43722 0.437225,0.43723 0.437225,1.27193 0,0.77509 -0.337856,1.80853 -0.337856,1.03344 -0.953947,1.84827 -0.596217,0.79496 -1.768777,1.21231 -1.152686,0.39748 -2.5637332,0.39748 -1.1725601,0 -2.2656246,-0.37761 -1.0930644,-0.3776 -1.8283987,-1.05331 -0.9141994,-0.85458 -1.4507947,-2.02714 -0.5167214,-1.19244 -0.5167214,-2.365 0,-1.70915 0.794956,-3.31894 0.8148299,-1.62966 2.186129,-2.52398 0.5962169,-0.39748 1.6694075,-0.65584 1.0731906,-0.25836 1.9675161,-0.25836 1.391173,0 2.44449,0.43722 1.053316,0.41736 1.609785,1.21231 0.238487,0.35773 0.238487,0.63597 0,0.31798 -0.278234,0.59621 -0.278235,0.27824 -0.55647,0.27824 -0.119243,0 -0.278234,-0.0397 -0.158991,-0.0397 -0.238487,-0.0994 z m 4.054286,5.34608 q 0,-0.75521 0.278235,-1.51042 0.278234,-0.77508 0.735334,-1.41104 0.4571,-0.63597 1.450795,-1.03345 0.993695,-0.41735 1.768777,-0.41735 0.794956,0 1.609786,0.21862 0.834703,0.21861 1.152686,0.67571 0.735334,1.03344 0.735334,2.02714 0,0.53659 -0.238487,0.9142 -0.218613,0.3776 -0.635964,0.81483 -0.337857,0.35773 -1.073191,0.47697 -0.71546,0.11924 -1.430921,0.11924 -0.4571,0 -1.112938,-0.0795 -0.655839,-0.0994 -1.27193,-0.23849 0.03975,0.39748 0.198739,0.77508 0.158991,0.37761 0.377604,0.57635 0.397478,0.3776 0.81483,0.47697 0.437226,0.0994 1.112939,0.0994 0.71546,0 1.331551,-0.23849 0.496847,-0.17886 0.81483,-0.17886 0.377604,0 0.576343,0.23848 0.198739,0.21862 0.198739,0.57635 0,0.49684 -0.576343,0.81483 -0.576343,0.31798 -1.331552,0.47697 -0.735334,0.13912 -1.192434,0.13912 -0.934073,0 -1.808524,-0.33786 -0.874452,-0.33786 -1.450795,-0.95395 -0.476974,-0.55647 -0.755208,-1.33155 -0.278235,-0.79495 -0.278235,-1.68928 z m 4.33251,-2.68298 q -0.437226,0 -0.874451,0.17887 -0.437226,0.15899 -0.715461,0.4571 -0.35773,0.3776 -0.496847,0.61609 -0.119244,0.21861 -0.158991,0.61609 0.496847,0.15899 2.066885,0.15899 0.854578,0 1.311678,-0.25836 0.476973,-0.25836 0.476973,-0.67571 0,-0.41735 -0.516721,-0.75521 -0.516722,-0.33786 -1.093065,-0.33786 z m 14.368815,5.36596 q 0.09937,0.0397 0.317982,0.0994 0.218613,0.0596 0.317983,0.11924 0.09937,0.0596 0.09937,0.17887 0.01987,0.47697 -0.35773,0.79495 -0.35773,0.29811 -0.854578,0.29811 -0.775082,0 -1.212307,-0.41735 -0.437226,-0.41735 -0.635965,-1.27193 -0.0795,-0.33786 -0.0795,-0.93408 0,-0.33785 0.03975,-1.09306 0.03975,-0.79496 0.03975,-1.27193 0,-0.69559 -0.397478,-1.21231 -0.377604,-0.53659 -1.073191,-0.53659 -0.417352,0 -0.874451,0.25836 -0.4571,0.23849 -0.635965,0.59622 -0.298109,0.57634 -0.417352,1.25205 -0.218613,1.19243 -0.218613,2.48424 0,0.61609 0.01987,0.95395 0,0.0795 0,0.31798 0.01987,0.21861 -0.03975,0.41735 -0.03975,0.17886 -0.158991,0.33786 -0.09937,0.0994 -0.317982,0.15899 -0.198739,0.0795 -0.377604,0.0795 -0.278235,0 -0.695587,-0.23848 -0.417352,-0.23849 -0.476974,-0.5366 l -0.01987,-0.33786 q 0,-0.17886 0.03975,-0.41735 0.238487,-1.39117 0.238487,-2.42461 0,-0.4571 -0.01987,-0.71546 l -0.01987,-0.93408 q 0,-0.47697 -0.238486,-0.9142 -0.238487,-0.4571 -0.55647,-0.4571 -0.09937,0 -0.278234,0.0795 -0.178865,0.0596 -0.298109,0.0596 -0.198739,0 -0.437225,-0.19874 -0.218613,-0.19874 -0.218613,-0.41735 0,-0.41735 0.278234,-0.67571 0.298109,-0.23849 0.576343,-0.37761 0.298109,-0.13911 0.675713,-0.13911 0.317982,0 0.516721,0.0596 0.198739,0.0596 0.536596,0.25836 0.178865,0.0994 0.417351,0.43722 0.238487,0.33786 0.397478,0.95395 0.516722,-0.95395 1.27193,-1.33155 0.775082,-0.39748 1.967516,-0.39748 0.4571,0 0.973821,0.29811 0.536595,0.29811 0.914199,0.69559 0.357731,0.43722 0.596217,1.09306 0.238487,0.63597 0.238487,1.15269 0,0.29811 -0.03975,0.97382 -0.05962,0.53659 -0.05962,1.13281 0,1.39117 0.536595,1.70916 z m 2.166265,-5.38583 q -0.278234,-0.0397 -0.457099,-0.21861 -0.158991,-0.19874 -0.158991,-0.47698 0,-0.35773 0.278234,-0.59621 0.05962,-0.0596 0.198739,-0.0994 0.139117,-0.0596 0.218613,-0.0994 0.437226,-0.13912 0.556469,-0.21861 0.4571,-0.27824 0.616091,-0.9142 0.158991,-0.75521 0.198739,-1.03345 0.03975,-0.43722 0.278235,-0.65584 0.25836,-0.23848 0.635965,-0.23848 0.496847,0 0.695586,0.25836 0.198739,0.25836 0.198739,0.95395 0,0.91419 -0.437226,1.72902 0.278235,0 0.9142,-0.0397 0.953947,-0.0397 1.331551,-0.0397 0.337856,0 0.576343,0.17886 0.258361,0.159 0.258361,0.47698 0,0.75521 -0.695587,0.89432 -0.635965,0.17887 -2.305372,0.21862 -0.139117,1.94764 -0.139117,3.08045 0,0.69559 0.05962,0.9937 0.119244,0.61609 0.397478,0.91419 0.298109,0.27824 0.874452,0.27824 0.278234,0 0.834704,-0.13912 0.337856,-0.0994 0.536595,-0.0994 0.258361,0 0.397478,0.17887 0.139117,0.17886 0.139117,0.47697 0,0.5366 -0.695586,0.89433 -0.695587,0.33785 -1.649534,0.33785 -0.596217,0 -1.17256,-0.27823 -0.576343,-0.29811 -0.973821,-0.71546 -0.0795,-0.0397 -0.238487,-0.43723 -0.139117,-0.39748 -0.278235,-0.87445 -0.05962,-0.23849 -0.05962,-1.15269 0,-0.87445 0.119243,-3.02083 l 0.01987,-0.43722 q -0.139117,0 -0.516721,-0.0199 -0.377604,-0.0397 -0.55647,-0.0596 z m 8.446419,-5.84293 q 0.695587,0.0596 1.212308,0.37761 0.516721,0.29811 0.516721,0.9142 0,0.4571 -0.437225,0.73533 -0.417352,0.25836 -1.013569,0.25836 -0.576343,0 -0.794956,-0.29811 -0.218613,-0.2981 -0.218613,-0.61609 0,-0.59621 0.119243,-0.99369 0.139118,-0.39748 0.616091,-0.37761 z m 1.589912,8.80414 v 0.57634 q 0,0.77509 0.03975,1.47067 0.05962,0.67572 0.139117,1.3713 0,0.23849 -0.278234,0.43723 -0.278235,0.17886 -0.516722,0.17886 -0.377604,0 -0.775082,-0.13911 -0.377604,-0.159 -0.457099,-0.37761 -0.119244,-0.63596 -0.119244,-1.13281 0,-1.62966 -0.09937,-3.6568 -0.0795,-1.78865 -0.0795,-2.50411 0,-0.35773 0.35773,-0.61609 0.35773,-0.25836 0.755208,-0.25836 0.576344,0 0.794956,0.25836 0.238487,0.25836 0.238487,0.81483 z m 4.710123,0.87445 q 0,0.75521 0.218613,1.17256 0.238486,0.39748 0.596217,0.39748 0.198739,0 0.377604,-0.0199 0.178865,-0.0397 0.35773,-0.0397 0.198739,0 0.337856,0.19874 0.158991,0.19874 0.158991,0.43722 0,0.47698 -0.457099,0.75521 -0.437226,0.25836 -1.192434,0.25836 -0.536596,0 -1.093065,-0.31798 -0.536595,-0.33786 -0.894325,-1.03344 -0.35773,-0.71546 -0.35773,-1.76878 0,-2.26562 0.0795,-3.83566 0.09937,-1.86815 0.09937,-4.71012 0,-0.89432 0.09937,-1.25205 0.119244,-0.27824 0.377604,-0.41735 0.278235,-0.15899 0.576343,-0.15899 0.298109,0 0.516722,0.0994 0.238487,0.0994 0.317982,0.31799 0.0795,0.23848 0.09937,0.47697 0.03975,0.21861 0.03975,0.63597 0,0.81483 -0.05962,1.57003 -0.03975,0.9142 -0.03975,1.33155 -0.158991,3.49781 -0.158991,5.90255 z m 8.963147,-1.39117 q 0.158991,0.0994 0.616091,0.3776 0.476974,0.25836 0.635965,0.61609 0.158991,0.35774 0.158991,0.9937 0,0.71546 -0.417352,1.27193 -0.417352,0.53659 -1.07319,0.8347 -0.476974,0.21862 -1.17256,0.33786 -0.675713,0.11924 -1.073191,0.11924 -0.397478,0 -1.033443,-0.11924 -0.616091,-0.11924 -0.854577,-0.21861 -0.616091,-0.35773 -1.073191,-0.87445 -0.437226,-0.51673 -0.437226,-1.05332 0,-0.39748 0.258361,-0.61609 0.258361,-0.23849 0.675712,-0.23849 0.198739,0 0.417352,0.15899 0.218613,0.13912 0.298109,0.29811 0.218613,0.51672 0.735334,0.77508 0.516722,0.25836 1.053317,0.25836 0.695586,0 1.291803,-0.21861 0.596217,-0.23849 0.596217,-0.63596 0,-0.17887 -0.09937,-0.27824 -0.0795,-0.11924 -0.238487,-0.23849 -0.278235,-0.19873 -0.834704,-0.31798 -0.556469,-0.13912 -0.71546,-0.17886 -0.81483,-0.17887 -1.589912,-0.5366 -0.775082,-0.3776 -1.232182,-0.89432 -0.4571,-0.51673 -0.4571,-1.33156 0,-0.53659 0.397478,-1.11293 0.397478,-0.59622 0.894326,-0.83471 0.35773,-0.13911 1.192434,-0.29811 0.854578,-0.15899 1.152686,-0.15899 0.4571,0 0.993695,0.0994 0.536595,0.0795 0.81483,0.27824 0.536595,0.31798 0.874451,0.67571 0.337857,0.33786 0.337857,0.77508 0,0.21861 -0.09937,0.47698 -0.09937,0.23848 -0.238487,0.2981 -0.298108,0.13912 -0.695586,0.13912 -0.178865,0 -0.298109,-0.0994 -0.09937,-0.0994 -0.278234,-0.31798 -0.218613,-0.33786 -0.417352,-0.39748 -0.238487,-0.0596 -0.695587,-0.13912 -0.457099,-0.0994 -0.61609,-0.0994 -0.4571,0 -0.953948,0.25836 -0.476973,0.25837 -0.476973,0.59622 0,0.17887 0.139117,0.27824 0.158991,0.0994 0.317983,0.17886 0.178865,0.0795 0.238486,0.0994 0.417352,0.19874 0.9142,0.33786 0.516721,0.13911 0.635964,0.17886 1.073191,0.25836 1.430922,0.49685 z m 16.43572,-6.6975 q 0,-0.57635 0.258361,-0.9937 0.278234,-0.43722 0.814829,-0.43722 0.4571,0 0.81483,0.17886 0.357731,0.17887 0.357731,0.59622 0,0.81483 -0.0795,2.2855 -0.0795,1.43092 -0.0795,2.1265 0,1.09307 0.0795,2.92147 0.0795,1.7489 0.0795,2.56373 0,0.65584 -0.01987,0.97382 0,0.31798 -0.357731,0.63596 -0.337856,0.29811 -1.053316,0.29811 -0.377604,0 -0.655839,-0.11924 -0.258361,-0.13912 -0.35773,-0.29811 -0.934073,-1.13281 -2.722724,-3.85553 -2.007264,-3.04071 -3.279194,-4.6505 0.158991,1.43092 0.158991,3.49781 0,0.9142 -0.03975,2.38487 -0.01987,1.45079 -0.0795,1.90789 -0.0795,0.57634 -0.35773,0.89433 -0.258361,0.29811 -0.834704,0.29811 -0.437226,0 -0.655839,-0.23849 -0.198739,-0.25836 -0.238486,-0.87445 -0.01987,-0.81483 0.09937,-2.44449 0.01987,-0.25836 0.05962,-0.89433 0.03975,-0.63596 0.03975,-1.13281 0,-1.3713 -0.139118,-3.14008 -0.119243,-1.94764 -0.119243,-2.88171 0,-0.47698 0.337856,-0.73534 0.35773,-0.25836 0.81483,-0.25836 0.397478,0 0.834704,0.19874 1.709155,2.14638 4.630618,6.3994 l 1.868147,2.86184 q 0.01987,-0.31798 0.01987,-0.89433 0,-1.01357 -0.03975,-2.18613 -0.03975,-1.17256 -0.05962,-1.58991 -0.09937,-1.92777 -0.09937,-3.39843 z m 4.511357,4.47162 q -0.158992,0 -0.278235,-0.11924 -0.119243,-0.13912 -0.119243,-0.31798 0,-0.57635 0.377604,-0.87445 0.377604,-0.31799 0.934073,-0.31799 0.775082,0 1.331551,0.41736 0.576343,0.39747 0.576343,1.15268 0,0.19874 -0.07949,1.51042 -0.0795,1.51041 -0.0795,2.00726 0,0.69559 0.258361,1.13281 0.278234,0.41736 0.854577,0.41736 1.112939,0 1.709156,-1.23219 0.616091,-1.25205 0.81483,-3.06058 0.07949,-0.79495 0.238486,-1.6694 0.0795,-0.47698 0.218613,-0.69559 0.139118,-0.21861 0.536596,-0.21861 0.25836,0 0.596217,0.11924 0.35773,0.11924 0.457099,0.31798 0.119244,0.29811 0.119244,0.65584 0,0.49685 -0.139118,1.2918 -0.158991,0.79496 -0.218613,1.72903 -0.03975,0.83471 0.258361,1.74891 0.298109,0.9142 0.854578,1.19243 0.635965,0.31798 0.635965,0.57634 0,0.41736 -0.298109,0.65584 -0.298108,0.23849 -0.576343,0.23849 -0.735334,0 -1.331551,-0.5366 -0.576343,-0.53659 -0.834704,-1.33155 -0.417352,0.63597 -0.81483,1.05332 -0.377604,0.39748 -0.973821,0.67571 -0.596217,0.25836 -1.470668,0.25836 -1.033443,0 -1.888021,-0.73533 -0.834704,-0.73534 -0.834704,-2.52399 0,-0.49684 0.01987,-1.05331 0.03975,-0.55647 0.03975,-0.79496 0.05962,-0.71546 0.05962,-1.31168 0,-0.17886 -0.139118,-0.29811 -0.119243,-0.11924 -0.278234,-0.11924 -0.119244,0 -0.278235,0.0397 -0.139117,0.0199 -0.25836,0.0199 z m 20.311114,5.74356 q 0,0.43723 -0.47697,0.73533 -0.4571,0.29811 -0.85458,0.29811 -0.75521,0 -1.212305,-0.17886 -0.437226,-0.19874 -0.81483,-0.71546 -0.516722,0.4571 -1.411047,0.69558 -0.894326,0.21862 -1.649534,0.21862 -1.232182,0 -2.027138,-0.65584 -0.794956,-0.67571 -0.794956,-1.96752 0,-0.55647 0.298109,-1.01357 0.298108,-0.47697 0.81483,-0.8347 0.576343,-0.3776 1.311677,-0.57634 0.735334,-0.21862 1.53029,-0.21862 0.417352,0 0.993695,0.15899 0.576343,0.159 0.894326,0.33786 v -0.31798 q 0,-1.07319 -0.516722,-1.47067 -0.516721,-0.41735 -1.669407,-0.41735 -0.337856,0 -0.675713,0.13912 -0.317982,0.13911 -0.735334,0.3776 -0.556469,0.29811 -1.053317,0.29811 -0.178865,0 -0.337856,-0.23849 -0.158991,-0.25836 -0.158991,-0.4571 0,-0.57634 0.536595,-0.99369 0.556469,-0.41736 1.311678,-0.61609 0.755208,-0.21862 1.351425,-0.21862 0.596217,0 1.371299,0.23849 0.775082,0.21861 1.271929,0.61609 0.596217,0.51672 0.914197,1.21231 0.33786,0.67571 0.33786,1.49054 0,0.25836 -0.0398,0.77508 -0.0397,0.55647 -0.0397,0.95395 0,0.17887 -0.0397,0.5366 -0.0397,0.43722 -0.0397,0.69558 0,0.23849 0.17886,0.41735 0.17887,0.15899 0.41735,0.15899 l 0.55647,-0.0199 q 0.21862,0 0.33786,0.15899 0.11924,0.15899 0.11924,0.39748 z m -6.399392,-0.51672 q 0.854578,0 1.430921,-0.17887 0.576343,-0.17886 1.391173,-0.65583 0.07949,-0.33786 0.09937,-0.89433 -1.093064,-0.51672 -1.808525,-0.51672 -0.814829,0 -1.450794,0.29811 -0.635965,0.29811 -0.635965,1.05331 0,0.37761 0.317982,0.63597 0.317983,0.25836 0.655838,0.25836 z m 15.342652,-3.51768 q 0,0.9142 -0.4571,1.55016 -0.4571,0.61609 -1.21231,1.09307 -1.03344,0.55647 -2.40474,0.57634 -0.0795,0.23849 -0.0795,0.49685 0,0.23848 0.25836,0.35773 0.27824,0.0994 0.97383,0.15899 0.57634,0.0397 1.2918,0.25836 0.73533,0.19874 1.15268,0.4571 0.51673,0.3776 0.71547,0.81483 0.21861,0.43723 0.21861,1.09306 0,0.85458 -0.79496,1.43092 -0.77508,0.59622 -1.8284,0.87446 -1.05331,0.27823 -1.84827,0.27823 -0.95395,0 -1.62966,-0.23849 -0.65584,-0.21861 -1.25205,-0.61609 -0.41736,-0.29811 -0.65584,-0.75521 -0.23849,-0.45709 -0.23849,-0.95394 0,-0.49685 0.31798,-0.95395 0.33786,-0.4571 0.81483,-0.79496 0.47698,-0.31798 0.89433,-0.43722 -0.15899,-0.19874 -0.23849,-0.33786 -0.0596,-0.15899 -0.0596,-0.35773 0,-0.67571 0.33786,-1.13281 -0.95395,-0.31798 -1.51042,-1.13281 -0.5366,-0.81483 -0.5366,-1.9079 0,-0.71546 0.33786,-1.2918 0.33786,-0.59622 0.93407,-1.13281 1.01357,-0.9142 2.80222,-0.9142 0.23849,0 0.65584,0.0795 0.41735,0.0795 0.81483,0.21862 0.63597,-0.27824 1.49054,-0.57635 0.85458,-0.2981 1.15269,-0.2981 0.4571,0 0.67571,0.15899 0.23849,0.13911 0.23849,0.63596 0,0.4571 -0.5366,0.65584 -0.51672,0.19874 -1.57003,0.3776 0.77508,0.93408 0.77508,2.26563 z m -4.13377,1.58991 q 1.15268,0 1.6694,-0.47697 0.5366,-0.47698 0.5366,-1.43092 0,-1.57004 -1.84827,-1.57004 -0.71546,0 -1.13281,0.15899 -0.39748,0.15899 -0.65584,0.53659 -0.35773,0.47698 -0.35773,1.29181 0,0.63596 0.51672,1.07319 0.53659,0.41735 1.27193,0.41735 z m -1.78865,5.42558 q 0,0.33785 0.61609,0.57634 0.63596,0.25836 1.35142,0.25836 0.79496,0 1.62966,-0.29811 0.85458,-0.27823 0.85458,-0.75521 0,-0.69558 -1.23218,-0.89432 -0.43723,-0.0795 -1.27193,-0.29811 -0.0994,-0.0199 -0.23849,-0.0596 -0.11924,-0.0398 -0.25836,-0.0795 -0.43722,0.15899 -0.95395,0.65584 -0.49684,0.51672 -0.49684,0.89433 z m 8.18803,-6.57827 q 0,-1.2123 0.5366,-2.00726 0.53659,-0.81483 1.49054,-1.53029 0.27824,-0.19874 0.93407,-0.33786 0.65584,-0.15899 1.15269,-0.15899 0.59622,0 1.25206,0.25836 0.67571,0.23849 1.09306,0.55647 0.73534,0.5366 1.01357,1.25206 0.27823,0.69558 0.27823,1.66941 0,0.41735 -0.47697,0.81483 -0.4571,0.3776 -0.99369,0.3776 l -0.75521,-0.0199 q -0.57635,0 -1.64954,0.0397 l -0.41735,0.0199 q -0.43722,0.0397 -0.65584,0.0397 -0.31798,0 -0.87445,-0.0795 0.0795,0.93407 0.69559,1.47067 0.61609,0.51672 1.33155,0.51672 1.25206,0 1.7489,-0.49685 0.41735,-0.29811 0.55647,-0.3776 0.13912,-0.0795 0.43723,-0.0795 0.31798,0 0.55647,0.29811 0.23848,0.29811 0.23848,0.59622 0,0.33785 -0.41735,0.69558 -0.39748,0.33786 -1.09306,0.71546 -0.37761,0.159 -1.03345,0.27824 -0.65583,0.11924 -1.09306,0.11924 -0.69559,0 -1.55016,-0.39748 -0.85458,-0.41735 -1.27193,-0.91419 -0.41736,-0.49685 -0.73534,-1.41105 -0.29811,-0.9142 -0.29811,-1.9079 z m 3.95491,-0.53659 q 1.41105,0 2.06689,-0.0994 -0.0397,-0.57634 -0.35773,-0.93407 -0.31799,-0.37761 -0.87446,-0.63597 -0.17886,-0.0795 -0.31798,-0.11924 -0.13912,-0.0398 -0.31798,-0.0398 -0.9142,0 -1.55017,0.49685 -0.61609,0.49685 -0.73533,1.27193 0.9937,0.0596 2.08676,0.0596 z m 11.32813,0.53659 q 0.79496,0.4571 1.11294,0.9142 0.31798,0.43723 0.31798,1.15269 0,0.71546 -0.41735,1.27193 -0.41735,0.53659 -1.07319,0.8347 -0.47698,0.21862 -1.19244,0.33786 -0.69558,0.11924 -1.09306,0.11924 -0.69559,0 -1.51042,-0.25836 -0.81483,-0.25836 -1.39117,-0.73533 -0.55647,-0.47698 -0.55647,-1.11294 0,-0.39748 0.25836,-0.61609 0.25836,-0.23849 0.67571,-0.23849 0.33786,0 0.71546,0.47698 0.37761,0.41735 0.87446,0.63596 0.51672,0.21861 1.01357,0.21861 1.88802,0 1.88802,-0.85457 0,-0.17887 -0.11925,-0.33786 -0.11924,-0.17887 -0.21861,-0.23849 -0.17887,-0.13911 -0.49685,-0.23848 -0.31798,-0.0994 -0.63596,-0.159 -0.31799,-0.0795 -0.47698,-0.11924 -0.15899,-0.0397 -0.67571,-0.13912 -0.49685,-0.0994 -0.95395,-0.33785 -0.7552,-0.35773 -1.23218,-0.87445 -0.4571,-0.51673 -0.4571,-1.33156 0,-0.4571 0.21861,-0.91419 0.23849,-0.47698 0.63597,-0.71547 0.59622,-0.3776 1.31168,-0.57634 0.71546,-0.19874 1.33155,-0.19874 0.49685,0 1.11294,0.0994 0.63596,0.0994 0.9142,0.27824 0.51672,0.27823 0.7552,0.57634 0.23849,0.29811 0.23849,0.75521 0,0.21861 -0.0994,0.43722 -0.0994,0.19874 -0.23849,0.27824 -0.31798,0.11924 -0.55646,0.11924 -0.17887,0 -0.29811,-0.0596 -0.11925,-0.0795 -0.21862,-0.15899 -0.0795,-0.0795 -0.0994,-0.0994 -0.25836,-0.27824 -0.57634,-0.43723 -0.31798,-0.15899 -0.93407,-0.15899 -0.39748,0 -0.77508,0.11925 -0.35773,0.0994 -0.55647,0.25836 -0.15899,0.11924 -0.21862,0.21861 -0.0596,0.0795 -0.0596,0.21861 0,0.55647 1.11294,0.81483 1.13281,0.25836 1.19243,0.27824 0.11925,0.0397 0.65584,0.19874 0.55647,0.15899 0.79496,0.2981 z"
     id="text2359"
     aria-label="Gentils Nuages" />
</svg>
