<svg xmlns="http://www.w3.org/2000/svg" width="500" height="200"><path fill="#2c233d" d="M0 0h500v200H0z"/><path d="M169.59 135.1a12.25 12.25 0 013.17.36 6 6 0 012.21 1.06 4.28 4.28 0 011.3 1.71 5.9 5.9 0 01.42 2.29 4.59 4.59 0 01-.29 1.63 5 5 0 01-.84 1.45 5.33 5.33 0 01-1.36 1.15 6.55 6.55 0 01-1.85.75 6.8 6.8 0 013.87 1.67 4.55 4.55 0 011.35 3.43 6 6 0 01-.48 2.44 5 5 0 01-1.4 1.84 6.4 6.4 0 01-2.26 1.15 10.68 10.68 0 01-3 .4h-6.92V135.1zm-4.59 1.23v8.76h4.61a7.48 7.48 0 002.52-.38 5 5 0 001.72-1 3.87 3.87 0 001-1.4 4.27 4.27 0 00.32-1.61 4 4 0 00-1.36-3.26 6.62 6.62 0 00-4.21-1.11zm5.35 18.87a6.43 6.43 0 004.25-1.2 4.22 4.22 0 001.44-3.41 4.16 4.16 0 00-.39-1.82 3.8 3.8 0 00-1.11-1.37 5.17 5.17 0 00-1.78-.87 8.72 8.72 0 00-2.4-.3H165v9zm17.93-14.01a7.21 7.21 0 012.89.55 5.89 5.89 0 012.15 1.56 6.92 6.92 0 011.33 2.43 11.25 11.25 0 010 6.37 6.92 6.92 0 01-1.33 2.43 5.81 5.81 0 01-2.15 1.55 8 8 0 01-5.77 0 5.88 5.88 0 01-2.16-1.55 6.85 6.85 0 01-1.34-2.43 11.25 11.25 0 010-6.37 6.85 6.85 0 011.34-2.43 6 6 0 012.16-1.56 7.21 7.21 0 012.88-.55zm0 14.3a5.56 5.56 0 002.34-.46 4.43 4.43 0 001.67-1.32 5.82 5.82 0 001-2.07 11.31 11.31 0 000-5.43 5.9 5.9 0 00-1-2.09 4.47 4.47 0 00-1.67-1.33 6.11 6.11 0 00-4.69 0 4.47 4.47 0 00-1.67 1.33 6 6 0 00-1 2.09 11 11 0 000 5.43 5.89 5.89 0 001 2.07 4.43 4.43 0 001.67 1.32 5.57 5.57 0 002.35.46zm13-10.44a9.36 9.36 0 01.79-1.63 5.18 5.18 0 011-1.21 4.22 4.22 0 011.3-.76 4.58 4.58 0 011.59-.26 5.1 5.1 0 01.92.08 2.32 2.32 0 01.8.29l-.12 1a.29.29 0 01-.29.24 2.22 2.22 0 01-.55-.11 3.64 3.64 0 00-1-.11 4.19 4.19 0 00-1.54.26 3.55 3.55 0 00-1.21.79 5.06 5.06 0 00-.93 1.3 12.3 12.3 0 00-.73 1.79v9.71h-1.45v-15h.77a.5.5 0 01.36.11.61.61 0 01.13.36zm11.41-.99a8.52 8.52 0 012.4-2.08 6 6 0 013-.78 5.64 5.64 0 012.18.39 4 4 0 011.56 1.13 5 5 0 01.93 1.78 8.07 8.07 0 01.32 2.35v9.58h-1.45v-9.58a5.14 5.14 0 00-1-3.31 3.55 3.55 0 00-2.94-1.2 5.32 5.32 0 00-2.73.75 7.74 7.74 0 00-2.27 2.07v11.27h-1.45v-15h.8a.4.4 0 01.44.38zm28.99 12.61a3.22 3.22 0 01-2.37-.84 3.53 3.53 0 01-.85-2.61V143h-2.16a.4.4 0 01-.27-.09.32.32 0 01-.11-.26v-.56l2.56-.18.36-5.36a.56.56 0 01.12-.24.32.32 0 01.26-.11h.68v5.73h4.73V143h-4.73v10.17a3.18 3.18 0 00.16 1.06 2 2 0 00.44.73 1.71 1.71 0 00.65.42 2.38 2.38 0 00.81.14 2.49 2.49 0 00.93-.16 3.88 3.88 0 00.68-.35 4.55 4.55 0 00.47-.35.51.51 0 01.29-.16.33.33 0 01.24.15l.39.63a4.18 4.18 0 01-1.45 1 4.55 4.55 0 01-1.83.39zm12.87-15.48a7.21 7.21 0 012.89.55 5.89 5.89 0 012.15 1.56 6.92 6.92 0 011.33 2.43 11.25 11.25 0 010 6.37 6.92 6.92 0 01-1.33 2.43 5.81 5.81 0 01-2.15 1.55 8 8 0 01-5.77 0 5.88 5.88 0 01-2.16-1.55 6.85 6.85 0 01-1.34-2.43 11.25 11.25 0 010-6.37 6.85 6.85 0 011.34-2.43 6 6 0 012.16-1.56 7.21 7.21 0 012.88-.55zm0 14.3a5.56 5.56 0 002.34-.46 4.43 4.43 0 001.67-1.32 5.82 5.82 0 001-2.07 11.31 11.31 0 000-5.43 5.9 5.9 0 00-1-2.09 4.47 4.47 0 00-1.67-1.33 6.11 6.11 0 00-4.69 0 4.47 4.47 0 00-1.67 1.33 6 6 0 00-1 2.09 11 11 0 000 5.43 5.89 5.89 0 001 2.07 4.43 4.43 0 001.67 1.32 5.57 5.57 0 002.35.46zm30.65-12.05l-.14.13a.3.3 0 01-.19.05.75.75 0 01-.41-.2 5.14 5.14 0 00-.69-.44 5.94 5.94 0 00-1.09-.44 5.4 5.4 0 00-1.59-.2 5.47 5.47 0 00-2.3.46 4.63 4.63 0 00-1.69 1.32 5.86 5.86 0 00-1 2.08 9.82 9.82 0 00-.35 2.74 9.68 9.68 0 00.37 2.8 6 6 0 001 2.06 4.46 4.46 0 001.64 1.27 5.13 5.13 0 002.14.44 5.53 5.53 0 001.82-.26 5.9 5.9 0 001.21-.56 5 5 0 00.75-.56.75.75 0 01.45-.26.37.37 0 01.3.15l.38.48a4.36 4.36 0 01-.87.84 5.9 5.9 0 01-1.19.68 7.29 7.29 0 01-1.44.44 8.09 8.09 0 01-1.62.16 6.43 6.43 0 01-2.61-.52 5.68 5.68 0 01-2-1.51 7 7 0 01-1.33-2.42 11.24 11.24 0 010-6.39 7 7 0 011.33-2.44 6 6 0 012.13-1.59 7 7 0 012.89-.56 6.74 6.74 0 012.59.47 6.4 6.4 0 012 1.27zm10.54-2.25a7.21 7.21 0 012.89.55 5.89 5.89 0 012.15 1.56 6.92 6.92 0 011.33 2.43 11.25 11.25 0 010 6.37 6.92 6.92 0 01-1.33 2.43 5.81 5.81 0 01-2.15 1.55 8 8 0 01-5.77 0 5.88 5.88 0 01-2.16-1.55 6.85 6.85 0 01-1.34-2.43 11.25 11.25 0 010-6.37 6.85 6.85 0 011.34-2.43 6 6 0 012.16-1.56 7.21 7.21 0 012.88-.55zm0 14.3a5.56 5.56 0 002.34-.46 4.43 4.43 0 001.67-1.32 5.82 5.82 0 001-2.07 11.31 11.31 0 000-5.43 5.9 5.9 0 00-1-2.09 4.47 4.47 0 00-1.67-1.33 6.11 6.11 0 00-4.69 0 4.47 4.47 0 00-1.67 1.33 6 6 0 00-1 2.09 11 11 0 000 5.43 5.89 5.89 0 001 2.07 4.43 4.43 0 001.67 1.32 5.57 5.57 0 002.35.46zM319 134.5v21.93h-.78a.41.41 0 01-.45-.39l-.15-2.37a8 8 0 01-2.32 2.15 5.67 5.67 0 01-3 .8 5.21 5.21 0 01-4.31-1.91q-1.54-1.91-1.54-5.74a10.55 10.55 0 01.43-3.07 7.34 7.34 0 011.26-2.47 5.94 5.94 0 012-1.65 6.2 6.2 0 012.79-.6 5.84 5.84 0 012.64.56 5.54 5.54 0 011.94 1.66v-8.9zm-1.43 10.16a5.13 5.13 0 00-1.91-1.82 5.75 5.75 0 00-4.71 0 4.56 4.56 0 00-1.66 1.36 6.15 6.15 0 00-1 2.11A10.17 10.17 0 00308 149a8 8 0 001.23 4.92 4.23 4.23 0 003.55 1.57 5 5 0 002.7-.77 7.34 7.34 0 002.15-2.16zm7.67 3.68v.29a10.13 10.13 0 00.39 3 6.06 6.06 0 001.11 2.15 4.59 4.59 0 001.75 1.3 5.79 5.79 0 002.29.44 6.84 6.84 0 002-.25 7.27 7.27 0 001.39-.56 7.68 7.68 0 00.9-.56 1 1 0 01.48-.25.34.34 0 01.3.15l.39.48a4.09 4.09 0 01-1 .84 6.81 6.81 0 01-1.33.67 9.57 9.57 0 01-1.57.44 8.63 8.63 0 01-1.68.17 7.14 7.14 0 01-2.8-.53 5.93 5.93 0 01-2.17-1.56 7.09 7.09 0 01-1.39-2.51 10.84 10.84 0 01-.49-3.4 9.26 9.26 0 01.46-3 6.82 6.82 0 011.33-2.35 6 6 0 012.13-1.54 7 7 0 012.86-.56 6.24 6.24 0 012.35.44 5.33 5.33 0 011.88 1.27 6 6 0 011.26 2.06 7.92 7.92 0 01.46 2.8.8.8 0 01-.09.45.35.35 0 01-.3.12zm10-.92a6.46 6.46 0 00-.34-2.16 4.6 4.6 0 00-1-1.62 4.17 4.17 0 00-1.47-1 4.83 4.83 0 00-1.88-.35 5.64 5.64 0 00-2.08.36 4.56 4.56 0 00-1.59 1 5.2 5.2 0 00-1.08 1.63 7.6 7.6 0 00-.54 2.13zM92.65 76.8L117 54.56h7.12v60h-15.79v-30.8L92.65 98.08 76.89 83.84v30.72H61v-60h7.12zm43.52-21.91h15.76v59.67h-15.76zm91.28-.41h47.28v15.68h-15.92v44.4H243v-44.4h-15.6zm205.02 60.08l-28.32-28.4v28.4h-15.76v-60h6.4l28.4 28.32V54.56H439v60z" fill="#fff"/><path fill="#ff8d4e" d="M220.59 114.37h-18.31L193 100.59l9.13-13.64 18.46 27.42z"/><path fill="#c25581" d="M202.34 79.51l18.17-24.91h-18.3l-9.07 12.32 9.2 12.59z"/><path fill="#fff" d="M199.6 83.31L178.62 54.7h-18.31l20.91 28.61-20.98 31.15h18.31l21.05-31.15z"/><path d="M327.9 88q0-9.74-3.36-15.9a20.85 20.85 0 00-8.54-8.9 23.13 23.13 0 00-10.81-2.71 28.54 28.54 0 00-14.44 3.42 21.77 21.77 0 00-8.91 9.43 30.45 30.45 0 00-3 13.62 31.18 31.18 0 003 13.8 22.43 22.43 0 008.91 9.64 27.72 27.72 0 0014.44 3.55 41.42 41.42 0 0012.93-1.7 46.48 46.48 0 008.64-3.78V97.16q-9.93 5.17-18.14 5.17a13.32 13.32 0 01-13-10.7h32.28zm-23.73-16.3a7.35 7.35 0 016.29 3 12.51 12.51 0 012.16 7c-.93-1.88-4.49-3.27-8.75-3.27s-7.8 1.39-8.75 3.26a11.53 11.53 0 012.47-7 8.12 8.12 0 016.58-2.99z" fill="#ff8d4e"/><path d="M379.63 69.19a24.84 24.84 0 00-10.17-10.76q-6.8-3.91-16.48-3.91a26.39 26.39 0 00-12.33 3.1 23.79 23.79 0 00-9.78 10.13 27.87 27.87 0 00-2.34 5.85A39.58 39.58 0 01330.9 88v2.08h33a15.2 15.2 0 01-14.88 12.21c-5.87 0-12.32-1.76-19.33-5.23v13a56.12 56.12 0 008.5 3.57 47.26 47.26 0 0014.81 1.89q9.68 0 16.48-4.05a25.59 25.59 0 0010.17-11A35.58 35.58 0 00383 84.73a34.75 34.75 0 00-3.37-15.54zm-25.51-1.88a9.27 9.27 0 017.49 3.44 12.45 12.45 0 012.67 6.32c-1.79-1.73-5.3-2.91-9.34-2.91-5.34 0-9.74 2.05-10.48 4.72a14.38 14.38 0 012.47-8.19 8.39 8.39 0 017.18-3.38z" fill="#c25581"/><path d="M327.9 88q0-9.74-3.36-15.9a20.85 20.85 0 00-8.54-8.9 23.13 23.13 0 00-10.81-2.71 28.54 28.54 0 00-14.44 3.42 21.77 21.77 0 00-8.91 9.43 30.45 30.45 0 00-3 13.62 31.18 31.18 0 003 13.8 22.43 22.43 0 008.91 9.64 27.72 27.72 0 0014.44 3.55 41.42 41.42 0 0012.93-1.7 46.48 46.48 0 008.64-3.78V97.16q-9.93 5.17-18.14 5.17a13.32 13.32 0 01-13-10.7h32.28zm-23.73-16.3a7.35 7.35 0 016.29 3 12.51 12.51 0 012.16 7c-.93-1.88-4.49-3.27-8.75-3.27s-7.8 1.39-8.75 3.26a11.53 11.53 0 012.47-7 8.12 8.12 0 016.58-2.99z" fill="#ff8d4e"/><path d="M379.63 69.19a24.84 24.84 0 00-10.17-10.76q-6.8-3.91-16.48-3.91a26.39 26.39 0 00-12.33 3.1 23.79 23.79 0 00-9.78 10.13 27.87 27.87 0 00-2.34 5.85A39.58 39.58 0 01330.9 88v2.08h33a15.2 15.2 0 01-14.88 12.21c-5.87 0-12.32-1.76-19.33-5.23v13a56.12 56.12 0 008.5 3.57 47.26 47.26 0 0014.81 1.89q9.68 0 16.48-4.05a25.59 25.59 0 0010.17-11A35.58 35.58 0 00383 84.73a34.75 34.75 0 00-3.37-15.54zm-25.51-1.88a9.27 9.27 0 017.49 3.44 12.45 12.45 0 012.67 6.32c-1.79-1.73-5.3-2.91-9.34-2.91-5.34 0-9.74 2.05-10.48 4.72a14.38 14.38 0 012.47-8.19 8.39 8.39 0 017.18-3.38z" fill="#c25581"/><path d="M327.9 88q0-9.74-3.36-15.9a20.85 20.85 0 00-8.54-8.9 23.13 23.13 0 00-10.81-2.71 28.54 28.54 0 00-14.44 3.42 21.77 21.77 0 00-8.91 9.43 30.45 30.45 0 00-3 13.62 31.18 31.18 0 003 13.8 22.43 22.43 0 008.91 9.64 27.72 27.72 0 0014.44 3.55 41.42 41.42 0 0012.93-1.7 46.48 46.48 0 008.64-3.78V97.16q-9.93 5.17-18.14 5.17a13.32 13.32 0 01-13-10.7h32.28zm-23.73-16.3a7.35 7.35 0 016.29 3 12.51 12.51 0 012.16 7c-.93-1.88-4.49-3.27-8.75-3.27s-7.8 1.39-8.75 3.26a11.53 11.53 0 012.47-7 8.12 8.12 0 016.58-2.99z" fill="#ff8d4e"/><path d="M379.63 69.19a24.84 24.84 0 00-10.17-10.76q-6.8-3.91-16.48-3.91a26.39 26.39 0 00-12.33 3.1 23.79 23.79 0 00-9.78 10.13 27.87 27.87 0 00-2.34 5.85A39.58 39.58 0 01330.9 88v2.08h33a15.2 15.2 0 01-14.88 12.21c-5.87 0-12.32-1.76-19.33-5.23v13a56.12 56.12 0 008.5 3.57 47.26 47.26 0 0014.81 1.89q9.68 0 16.48-4.05a25.59 25.59 0 0010.17-11A35.58 35.58 0 00383 84.73a34.75 34.75 0 00-3.37-15.54zm-25.51-1.88a9.27 9.27 0 017.49 3.44 12.45 12.45 0 012.67 6.32c-1.79-1.73-5.3-2.91-9.34-2.91-5.34 0-9.74 2.05-10.48 4.72a14.38 14.38 0 012.47-8.19 8.39 8.39 0 017.18-3.38z" fill="#c25581"/><path d="M327.9 88q0-9.74-3.36-15.9a20.85 20.85 0 00-8.54-8.9 23.13 23.13 0 00-10.81-2.71 28.54 28.54 0 00-14.44 3.42 21.77 21.77 0 00-8.91 9.43 30.45 30.45 0 00-3 13.62 31.18 31.18 0 003 13.8 22.43 22.43 0 008.91 9.64 27.72 27.72 0 0014.44 3.55 41.42 41.42 0 0012.93-1.7 46.48 46.48 0 008.64-3.78V97.16q-9.93 5.17-18.14 5.17a13.32 13.32 0 01-13-10.7h32.28zm-23.73-16.3a7.35 7.35 0 016.29 3 12.51 12.51 0 012.16 7c-.93-1.88-4.49-3.27-8.75-3.27s-7.8 1.39-8.75 3.26a11.53 11.53 0 012.47-7 8.12 8.12 0 016.58-2.99z" fill="#ff8d4e"/><path d="M379.63 69.19a24.84 24.84 0 00-10.17-10.76q-6.8-3.91-16.48-3.91a26.39 26.39 0 00-12.33 3.1 23.79 23.79 0 00-9.78 10.13 27.87 27.87 0 00-2.34 5.85A39.58 39.58 0 01330.9 88v2.08h33a15.2 15.2 0 01-14.88 12.21c-5.87 0-12.32-1.76-19.33-5.23v13a56.12 56.12 0 008.5 3.57 47.26 47.26 0 0014.81 1.89q9.68 0 16.48-4.05a25.59 25.59 0 0010.17-11A35.58 35.58 0 00383 84.73a34.75 34.75 0 00-3.37-15.54zm-25.51-1.88a9.27 9.27 0 017.49 3.44 12.45 12.45 0 012.67 6.32c-1.79-1.73-5.3-2.91-9.34-2.91-5.34 0-9.74 2.05-10.48 4.72a14.38 14.38 0 012.47-8.19 8.39 8.39 0 017.18-3.38z" fill="#c25581"/></svg>